<svg width="25" height="24" viewBox="0 0 25 24" fill="none" xmlns="http://www.w3.org/2000/svg">
<g clip-path="url(#clip0_1371_11423)">
<path fill-rule="evenodd" clip-rule="evenodd" d="M3.79474 19.658C3.799 19.6526 3.80695 19.6418 3.81769 19.6232C3.84142 19.5822 3.87113 19.5165 3.90203 19.4181L4.83817 16.0031H10.7017L11.6031 19.3464C11.6542 19.5103 11.7007 19.6148 11.7347 19.6761C11.7609 19.6804 11.801 19.6844 11.8582 19.6844H14.2751C14.4108 19.6844 14.5071 19.5522 14.4655 19.423L9.70193 4.6544C9.64862 4.50475 9.597 4.40251 9.55346 4.33543C9.51131 4.32522 9.4362 4.31445 9.31778 4.31445H6.23861C6.11311 4.31445 6.03594 4.32676 5.99494 4.33791C5.95593 4.39148 5.90599 4.48156 5.85486 4.62602L1.26327 19.4252C1.22334 19.5539 1.31953 19.6844 1.45429 19.6844H3.62204C3.73173 19.6844 3.78031 19.6652 3.79474 19.658ZM10.0111 13.7726C10.0435 13.8991 9.94792 14.0223 9.81732 14.0223H5.76225C5.63166 14.0223 5.53611 13.8992 5.5685 13.7727L7.23174 7.27801C7.2544 7.18952 7.33414 7.12763 7.42548 7.12763H8.15334C8.24467 7.12763 8.32441 7.18951 8.34708 7.27799L10.0111 13.7726ZM24.4999 11.613V12.3869C24.4999 12.8151 24.0871 13.1607 23.5757 13.1607H21.5016V15.2348C21.5016 15.7462 21.156 16.1591 20.7278 16.1591H19.9539C19.5257 16.1591 19.1801 15.7462 19.1801 15.2348V13.1607H17.106C16.5946 13.1607 16.1818 12.8151 16.1818 12.3869V11.613C16.1818 11.1848 16.5946 10.8392 17.106 10.8392H19.1801V8.76513C19.1801 8.25373 19.5257 7.84089 19.9539 7.84089H20.7278C21.156 7.84089 21.5016 8.25373 21.5016 8.76513V10.8392H23.5757C24.0871 10.8392 24.4999 11.1848 24.4999 11.613Z" fill="#49454F"/>
</g>
<defs>
<clipPath id="clip0_1371_11423">
<rect width="24" height="24" fill="white" transform="translate(0.5)"/>
</clipPath>
</defs>
</svg>
