<svg width="25" height="24" viewBox="0 0 25 24" fill="none" xmlns="http://www.w3.org/2000/svg">
<g clip-path="url(#clip0_1250_17643)">
<path fill-rule="evenodd" clip-rule="evenodd" d="M20.7001 3.66744C19.3657 2.33307 17.2948 2.33307 15.9605 3.66744L11.7203 7.90761L9.83467 6.022L14.0748 1.78183C16.4507 -0.593933 20.21 -0.593947 22.5857 1.78181L22.7183 1.91432C25.094 4.29009 25.094 8.04944 22.7183 10.4252L18.4781 14.6653L16.5924 12.7797L20.8327 8.53959C22.1669 7.20521 22.1669 5.13433 20.8327 3.79996L20.7001 3.66744ZM7.31707 15.2973L15.6649 6.94952L17.5505 8.83515L9.20268 17.1829L7.31707 15.2973ZM9.03959 20.3312C7.70521 21.6656 5.63432 21.6656 4.29994 20.3312L4.16744 20.1988C2.83307 18.8644 2.83307 16.7935 4.16744 15.4591L8.40761 11.2189L6.52199 9.33331L2.28183 13.5735C-0.0939484 15.9492 -0.093935 19.7087 2.28183 22.0844L2.41433 22.2169C4.79011 24.5927 8.54944 24.5927 10.9252 22.2169L15.1653 17.9767L13.2797 16.0911L9.03959 20.3312Z" fill="#49454F"/>
</g>
<defs>
<clipPath id="clip0_1250_17643">
<rect width="24" height="24" fill="white" transform="translate(0.5)"/>
</clipPath>
</defs>
</svg>
