<svg width="25" height="24" viewBox="0 0 25 24" fill="none" xmlns="http://www.w3.org/2000/svg">
<g clip-path="url(#clip0_1247_10157)">
<path fill-rule="evenodd" clip-rule="evenodd" d="M21.1543 8.79303C20.875 8.50514 15.259 2.89772 12.7325 0.375455C12.2426 -0.114388 11.6411 -0.118685 11.1555 0.366862C8.5645 2.95358 5.97778 5.5403 3.39106 8.13131C2.20513 9.30866 2.19653 11.2208 3.36958 12.4067L3.38677 12.4239C5.27739 14.3274 7.17231 16.2223 9.07583 18.113C9.6688 18.7059 10.3907 18.9981 11.2973 19.0067C12.0793 19.0024 12.8012 18.693 13.4028 18.1001C13.9958 17.5157 19.1563 12.3508 21.15 10.3528C21.6313 9.87155 21.627 9.27858 21.1543 8.79303ZM18.675 9.68678C17.3863 9.69108 16.1018 9.69108 14.813 9.69108H14.8122L5.1313 9.68678H4.86059C7.23677 7.31061 9.60434 4.94733 11.959 2.59694C14.1247 4.76686 19.036 9.68249 19.036 9.68249L18.675 9.68678ZM23.2973 21.5946H1.69731C1.0359 21.5946 0.497314 22.1332 0.497314 22.7946C0.497314 23.456 1.0359 23.9946 1.69731 23.9946H23.2973C23.9587 23.9946 24.4973 23.456 24.4973 22.7946C24.4973 22.1332 23.9587 21.5946 23.2973 21.5946ZM19.5215 17.3267C19.9899 18.547 21.2876 19.2302 22.5594 18.9208H22.568C23.9473 18.5771 24.8711 16.9958 24.3598 15.5263C23.9301 14.2931 23.2641 13.1802 22.5551 12.0974C22.2672 11.6591 21.5754 11.6849 21.2747 12.1146C21.1801 12.2478 21.0942 12.3853 21.0083 12.5228L20.972 12.5824C20.391 13.5378 19.811 14.4917 19.4743 15.5692C19.2895 16.145 19.3067 16.7638 19.5215 17.3267Z" fill="#49454F"/>
</g>
<defs>
<clipPath id="clip0_1247_10157">
<rect width="24" height="24" fill="white" transform="translate(0.5)"/>
</clipPath>
</defs>
</svg>
