<svg width="24" height="24" viewBox="0 0 24 24" fill="none" xmlns="http://www.w3.org/2000/svg">
<path fill-rule="evenodd" clip-rule="evenodd" d="M21 4H3C2.44771 4 2 4.44772 2 5V19C2 19.5523 2.44772 20 3 20H21C21.5523 20 22 19.5523 22 19V5C22 4.44772 21.5523 4 21 4ZM3 2C1.34315 2 0 3.34315 0 5V19C0 20.6569 1.34315 22 3 22H21C22.6569 22 24 20.6569 24 19V5C24 3.34315 22.6569 2 21 2H3ZM7.2 10.5095L4 13.5095V18.0096H15.2L7.2 10.5095ZM15.2 13.5095L20 18.0096H16.8L13.6 15.0096L15.2 13.5095ZM15.5 11C16.8807 11 18 9.88071 18 8.5C18 7.11929 16.8807 6 15.5 6C14.1193 6 13 7.11929 13 8.5C13 9.88071 14.1193 11 15.5 11Z" fill="#49454F"/>
</svg>
