<svg width="25" height="24" viewBox="0 0 25 24" fill="none" xmlns="http://www.w3.org/2000/svg">
<g clip-path="url(#clip0_1279_1104)">
<path fill-rule="evenodd" clip-rule="evenodd" d="M1.7 3.59995H23.3C23.98 3.59995 24.5 3.07995 24.5 2.39995C24.5 1.71995 23.98 1.19995 23.3 1.19995H1.7C1.02 1.19995 0.5 1.71995 0.5 2.39995C0.5 3.07995 1.02 3.59995 1.7 3.59995ZM1.7 9.99991H16.1C16.78 9.99991 17.3 9.47991 17.3 8.79991C17.3 8.11991 16.78 7.59991 16.1 7.59991H1.7C1.02 7.59991 0.5 8.11991 0.5 8.79991C0.5 9.47991 1.02 9.99991 1.7 9.99991ZM23.3 16.4H1.7C1.02 16.4 0.5 15.88 0.5 15.2C0.5 14.52 1.02 14 1.7 14H23.3C23.98 14 24.5 14.52 24.5 15.2C24.5 15.88 23.98 16.4 23.3 16.4ZM1.7 22.8H16.1C16.78 22.8 17.3 22.28 17.3 21.6C17.3 20.92 16.78 20.4 16.1 20.4H1.7C1.02 20.4 0.5 20.92 0.5 21.6C0.5 22.28 1.02 22.8 1.7 22.8Z" fill="#49454F"/>
</g>
<defs>
<clipPath id="clip0_1279_1104">
<rect width="24" height="24" fill="white" transform="translate(0.5)"/>
</clipPath>
</defs>
</svg>
