<svg width="25" height="24" viewBox="0 0 25 24" fill="none" xmlns="http://www.w3.org/2000/svg">
<g clip-path="url(#clip0_1250_17417)">
<path d="M23.9863 19.6952C23.7803 19.6952 23.5913 19.5773 23.5103 19.3839C23.451 19.2435 21.9665 15.9138 16.4163 15.2543C15.2602 15.114 13.8756 15.042 12.1941 15.0294V19.1796C12.1941 19.3713 12.0906 19.5449 11.9206 19.6367C11.7515 19.7248 11.549 19.7122 11.3916 19.607L0.72852 12.4293C0.58457 12.333 0.5 12.1711 0.5 12.001C0.5 11.8292 0.58457 11.6727 0.72852 11.5719L11.3961 4.39331C11.5535 4.28444 11.7542 4.27725 11.9251 4.36721C12.096 4.45898 12.1977 4.63262 12.1977 4.81886V8.6812C14.5171 8.9835 24.5 10.7775 24.5 19.1841C24.5 19.4279 24.3282 19.6412 24.087 19.6898C24.0538 19.6951 24.0187 19.6952 23.9863 19.6952Z" fill="#49454F"/>
</g>
<defs>
<clipPath id="clip0_1250_17417">
<rect width="24" height="24" fill="white" transform="translate(0.5)"/>
</clipPath>
</defs>
</svg>
