<svg width="25" height="24" viewBox="0 0 25 24" fill="none" xmlns="http://www.w3.org/2000/svg">
<g clip-path="url(#clip0_1371_11422)">
<path fill-rule="evenodd" clip-rule="evenodd" d="M3.81769 19.6232C3.80695 19.6418 3.799 19.6526 3.79474 19.658C3.78031 19.6652 3.73173 19.6844 3.62204 19.6844H1.45429C1.31953 19.6844 1.22334 19.5539 1.26327 19.4252L5.85486 4.62602C5.90599 4.48156 5.95593 4.39148 5.99494 4.33791C6.03594 4.32676 6.11311 4.31445 6.23861 4.31445H9.31778C9.4362 4.31445 9.51131 4.32522 9.55346 4.33543C9.597 4.40251 9.64862 4.50475 9.70193 4.6544L14.4655 19.423C14.5071 19.5522 14.4108 19.6844 14.2751 19.6844H11.8582C11.801 19.6844 11.7609 19.6804 11.7347 19.6761C11.7007 19.6148 11.6542 19.5103 11.6031 19.3464L10.7017 16.0031H4.83817L3.90203 19.4181C3.87113 19.5165 3.84142 19.5822 3.81769 19.6232ZM9.87229 14.0201C10.0035 14.0201 10.0992 13.8959 10.0656 13.769L8.34793 7.27648C8.32472 7.18874 8.24534 7.12763 8.15459 7.12763H7.42656C7.33472 7.12763 7.25467 7.19019 7.23249 7.27932L5.61624 13.7718C5.58483 13.898 5.68028 14.0201 5.81032 14.0201H9.87229ZM24.4999 12.3869V11.613C24.4999 11.1848 24.0871 10.8392 23.5757 10.8392H17.106C16.5946 10.8392 16.1818 11.1848 16.1818 11.613V12.3869C16.1818 12.8151 16.5946 13.1607 17.106 13.1607H23.5757C24.0871 13.1607 24.4999 12.8151 24.4999 12.3869Z" fill="#49454F"/>
</g>
<defs>
<clipPath id="clip0_1371_11422">
<rect width="24" height="24" fill="white" transform="translate(0.5)"/>
</clipPath>
</defs>
</svg>
