<svg width="25" height="24" viewBox="0 0 25 24" fill="none" xmlns="http://www.w3.org/2000/svg">
<path d="M19.6324 13.3119C19.0539 12.5105 18.158 11.9771 16.9444 11.7116C17.9116 11.3363 18.6274 10.7777 19.092 10.0358C19.5568 9.29367 19.7888 8.44703 19.7888 7.49453C19.7888 5.67223 19.0681 4.30074 17.6272 3.38055C16.1859 2.4602 14.1804 2 11.6112 2H4.5V22H12.6351C15.1668 22 17.1104 21.5011 18.4664 20.5027C19.822 19.5048 20.5 18.0303 20.5 16.0798C20.5 15.036 20.2105 14.1132 19.6324 13.3119ZM9.32142 5.57145H11.6113C12.7491 5.57145 13.5928 5.76617 14.1431 6.15527C14.6928 6.54457 14.9679 7.16477 14.9679 8.01652C14.9679 8.7675 14.6975 9.3375 14.1571 9.7266C13.6166 10.1159 12.801 10.3197 11.7107 10.338H9.32142V5.57145ZM14.9392 17.8446C14.4272 18.2339 13.6592 18.4287 12.6351 18.4287H9.32142V13.415H12.9056C13.8916 13.415 14.6051 13.637 15.0458 14.081C15.4868 14.5252 15.7074 15.1823 15.7074 16.0523C15.7074 16.8582 15.4511 17.4555 14.9392 17.8446Z" fill="#49454F"/>
</svg>
