<svg width="24" height="24" viewBox="0 0 24 24" fill="none" xmlns="http://www.w3.org/2000/svg">
<path d="M18.2409 13.1807C17.7346 12.4595 16.9507 11.9794 15.8888 11.7404C16.7352 11.4027 17.3615 10.9 17.768 10.2322C18.1747 9.5643 18.3777 8.80233 18.3777 7.94508C18.3777 6.305 17.7471 5.07067 16.4863 4.24249C15.2252 3.41418 13.4704 3 11.2223 3H5V21H12.1182C14.3335 21 16.0341 20.551 17.2206 19.6524C18.4068 18.7543 19 17.4273 19 15.6718C19 14.7324 18.7467 13.9019 18.2409 13.1807ZM9.21874 6.2143H11.2224C12.218 6.2143 12.9562 6.38955 13.4377 6.73975C13.9187 7.09011 14.1594 7.64829 14.1594 8.41487C14.1594 9.09075 13.9228 9.60375 13.45 9.95394C12.977 10.3043 12.2634 10.4877 11.3094 10.5042H9.21874V6.2143ZM14.1343 17.2602C13.6863 17.6105 13.0143 17.7858 12.1182 17.7858H9.21874V13.2735H12.3549C13.2176 13.2735 13.8419 13.4733 14.2276 13.8729C14.6135 14.2727 14.8065 14.864 14.8065 15.6471C14.8065 16.3723 14.5822 16.91 14.1343 17.2602Z" fill="#49454E"/>
</svg>
