<svg width="24" height="24" viewBox="0 0 24 24" fill="none" xmlns="http://www.w3.org/2000/svg">
<path fill-rule="evenodd" clip-rule="evenodd" d="M3.21211 4C3.88153 4 4.42422 4.54366 4.42422 5.21429V11.2857H11.6969V5.21429C11.6969 4.54366 12.2395 4 12.909 4C13.5784 4 14.1211 4.54366 14.1211 5.21429V12.4947L14.1211 12.5L14.1211 12.5053V19.7857C14.1211 20.4564 13.5784 21 12.909 21C12.2395 21 11.6969 20.4564 11.6969 19.7857V13.7143H4.42422V19.7857C4.42422 20.4564 3.88153 21 3.21211 21C2.54269 21 2 20.4564 2 19.7857V12.5V5.21429C2 4.54366 2.54269 4 3.21211 4ZM21.3599 9.0008C21.7539 9.21211 22 9.62358 22 10.0714V19.7857C22 20.4563 21.4573 21 20.7879 21C20.1184 21 19.5758 20.4563 19.5758 19.7857V12.3403L17.8239 13.5104C17.267 13.8823 16.5144 13.7315 16.1431 13.1735C15.7717 12.6156 15.9222 11.8616 16.4792 11.4897L20.1155 9.06105C20.4875 8.81264 20.9657 8.78949 21.3599 9.0008Z" fill="#49454E"/>
</svg>
