<svg width="24" height="24" viewBox="0 0 24 24" fill="none" xmlns="http://www.w3.org/2000/svg">
<path fill-rule="evenodd" clip-rule="evenodd" d="M3.14832 4C3.78252 4 4.29665 4.51456 4.29665 5.14929V11.2789H11.1866V5.14929C11.1866 4.51456 11.7007 4 12.3349 4C12.9691 4 13.4833 4.51456 13.4833 5.14929V19.8507C13.4833 20.4854 12.9691 21 12.3349 21C11.7007 21 11.1866 20.4854 11.1866 19.8507V13.7082H4.29665V19.8507C4.29665 20.4854 3.78252 21 3.14832 21C2.51413 21 2 20.4854 2 19.8507V12.4936V5.14929C2 4.51456 2.51413 4 3.14832 4ZM19.7794 9.99704C21.0425 10.4184 22 11.5311 22 12.955C22 14.1227 21.5919 14.9801 20.9623 15.6365C20.4821 16.137 19.8631 16.5167 19.3825 16.8114C19.3056 16.8585 19.2323 16.9035 19.1636 16.9464C18.6042 17.2964 18.1958 17.594 17.9047 17.9947C17.7713 18.1783 17.6477 18.4049 17.557 18.7014H20.8517C21.4858 18.7014 22 19.216 22 19.8507C22 20.4855 21.4858 21 20.8517 21H16.2584C15.6242 21 15.1101 20.4855 15.1101 19.8507C15.1101 18.4926 15.4552 17.4575 16.0473 16.6427C16.6175 15.8582 17.3574 15.3656 17.9464 14.9972C18.0416 14.9377 18.1315 14.882 18.2167 14.8292C18.7132 14.5216 19.0458 14.3154 19.3056 14.0446C19.5372 13.803 19.7034 13.5112 19.7034 12.955C19.7034 12.6549 19.5125 12.3309 19.0531 12.1777C18.6072 12.0289 17.8464 12.0502 16.9474 12.7251C16.4399 13.106 15.7202 13.003 15.3397 12.4952C14.9592 11.9875 15.0619 11.2671 15.5694 10.8862C16.9669 9.83721 18.5029 9.57118 19.7794 9.99704Z" fill="#49454E"/>
</svg>
