<svg width="24" height="24" viewBox="0 0 24 24" fill="none" xmlns="http://www.w3.org/2000/svg">
<path fill-rule="evenodd" clip-rule="evenodd" d="M3.16192 3C3.80363 3 4.32385 3.54319 4.32385 4.21324V10.6839H11.2954V4.21324C11.2954 3.54319 11.8156 3 12.4573 3C13.099 3 13.6192 3.54319 13.6192 4.21324V19.7327C13.6192 20.4027 13.099 20.9459 12.4573 20.9459C11.8156 20.9459 11.2954 20.4027 11.2954 19.7327V13.2484H4.32385V19.7327C4.32385 20.4027 3.80363 20.9459 3.16192 20.9459C2.52022 20.9459 2 20.4027 2 19.7327V11.9662V4.21324C2 3.54319 2.52022 3 3.16192 3ZM18.7864 11.1431C17.8799 10.9258 17.2538 11.44 17.0498 11.6749C16.7043 12.0727 16.1153 12.1027 15.7343 11.7419C15.3533 11.381 15.3246 10.766 15.6701 10.3682C16.1756 9.78628 17.4464 8.82641 19.2031 9.24741C21.3085 9.75197 21.8682 11.3128 21.8682 12.2311C21.8682 13.0252 21.6977 13.8953 20.9518 14.5194C20.8838 14.5763 20.8126 14.6313 20.7383 14.6845C21.4788 15.2685 22 16.165 22 17.3996C22 18.69 21.5362 19.6503 20.7705 20.2572C20.0481 20.8299 19.1685 21 18.4494 21C17.8853 21 17.0443 20.8871 16.3073 20.4859C15.5281 20.0616 14.8029 19.2629 14.8029 17.979C14.8029 17.442 15.2199 17.0066 15.7343 17.0066C16.2486 17.0066 16.6656 17.442 16.6656 17.979C16.708 18.3112 16.8679 18.6471 17.2103 18.8336C17.595 19.043 18.0697 19.1109 18.4494 19.1109C18.9258 19.1109 19.3558 18.9367 19.6442 18.7081C19.8893 18.5139 20.1373 18.1602 20.1373 17.3996C20.1373 16.7545 19.8716 16.3849 19.4607 16.1276C19.2028 15.9662 18.8838 15.8514 18.5391 15.7814C18.0734 15.6867 17.6849 15.2965 17.6849 14.8011C17.6849 14.3517 18.0076 13.9837 18.4213 13.8598C19.0701 13.6654 19.3992 13.3859 19.6443 13.1778L19.6447 13.1774C19.6667 13.1588 19.688 13.1407 19.7088 13.1233C19.993 12.8854 20.0055 12.4902 20.0055 12.2311L20.0053 12.2291C20.0042 12.2162 20.0002 12.1698 19.9693 12.079C19.9365 11.9826 19.88 11.8641 19.7889 11.7419C19.616 11.5097 19.4191 11.2947 18.7864 11.1431Z" fill="#49454E"/>
</svg>
