<svg width="24" height="24" viewBox="0 0 24 24" fill="none" xmlns="http://www.w3.org/2000/svg">
<path fill-rule="evenodd" clip-rule="evenodd" d="M13.1682 4.22222H11.5C10.9086 4.22222 10.4286 3.72444 10.4286 3.11111C10.4286 2.49778 10.9086 2 11.5 2H17.9286C18.52 2 19 2.49778 19 3.11111C19 3.72444 18.52 4.22222 17.9286 4.22222H15.4568L9.83179 19.7778H11.5C12.0914 19.7778 12.5714 20.2756 12.5714 20.8889C12.5714 21.5022 12.0914 22 11.5 22H5.07143C4.48 22 4 21.5022 4 20.8889C4 20.2756 4.48 19.7778 5.07143 19.7778H7.54321L13.1682 4.22222Z" fill="#49454E"/>
</svg>
