<svg width="25" height="24" viewBox="0 0 25 24" fill="none" xmlns="http://www.w3.org/2000/svg">
<path fill-rule="evenodd" clip-rule="evenodd" d="M4.67474 2.34146C4.67474 2.12009 4.55289 1.91669 4.35775 1.81224C4.16255 1.70778 3.92576 1.71923 3.74154 1.84202L1.9408 3.04254C1.66499 3.2264 1.59044 3.59909 1.77435 3.87491C1.95821 4.15072 2.3309 4.22527 2.60672 4.04141L3.47425 3.46302V7.14343C3.47425 7.47494 3.74298 7.74367 4.0745 7.74367C4.40601 7.74367 4.67474 7.47494 4.67474 7.14343V2.34146ZM22.4988 3.96295H8.64792C8.02016 3.96295 7.50899 4.50153 7.50899 5.16295C7.50899 5.82437 8.02016 6.36295 8.64792 6.36295H22.4988C23.1265 6.36295 23.6377 5.82437 23.6377 5.16295C23.6377 4.50153 23.1265 3.96295 22.4988 3.96295ZM8.64553 10.7999H22.4964C23.1241 10.7999 23.6353 11.3384 23.6353 11.9999C23.6353 12.6613 23.1241 13.1999 22.4964 13.1999H8.64553C8.01777 13.1999 7.50659 12.6613 7.50659 11.9999C7.50659 11.3384 8.01777 10.7999 8.64553 10.7999ZM8.64289 17.6369H22.4937C23.1215 17.6369 23.6327 18.1755 23.6327 18.8369C23.6327 19.4983 23.1215 20.0369 22.4937 20.0369H8.64289C8.01513 20.0369 7.50395 19.4983 7.50395 18.8369C7.50395 18.1755 8.01513 17.6369 8.64289 17.6369ZM4.358 9.21976C4.97545 9.42557 5.44348 9.969 5.44348 10.6644C5.44348 11.2348 5.24399 11.6535 4.93622 11.9741C4.70153 12.2185 4.39892 12.404 4.16401 12.5479C4.1264 12.5709 4.09058 12.5929 4.05702 12.6139C3.78354 12.7848 3.58394 12.9301 3.44164 13.1259C3.37642 13.2155 3.31602 13.3262 3.27167 13.471H4.88216C5.19212 13.471 5.44348 13.7223 5.44348 14.0323C5.44348 14.3424 5.19212 14.5937 4.88216 14.5937H2.63687C2.32686 14.5937 2.07555 14.3424 2.07555 14.0323C2.07555 13.369 2.24429 12.8635 2.5337 12.4655C2.8124 12.0824 3.17412 11.8418 3.46202 11.6619C3.50855 11.6328 3.5525 11.6056 3.59415 11.5798C3.83681 11.4296 3.99943 11.3289 4.1264 11.1966C4.23962 11.0786 4.32084 10.9361 4.32084 10.6644C4.32084 10.5179 4.22755 10.3596 4.00296 10.2848C3.785 10.2121 3.41313 10.2225 2.97367 10.5522C2.72562 10.7382 2.37378 10.6879 2.18782 10.4399C2.00179 10.1919 2.05203 9.84006 2.30008 9.65404C2.98321 9.14169 3.73403 9.01176 4.358 9.21976ZM2.99409 17.4333C3.09317 17.3241 3.44281 17.085 3.88302 17.186C4.19023 17.2565 4.28586 17.3565 4.36982 17.4644C4.41404 17.5213 4.44146 17.5764 4.45739 17.6212C4.47239 17.6635 4.47435 17.6851 4.47489 17.691C4.47492 17.6914 4.47495 17.6917 4.47498 17.692C4.47498 17.8124 4.46893 17.9963 4.3309 18.1069C4.32073 18.115 4.31032 18.1235 4.29957 18.1322C4.18058 18.229 4.02078 18.359 3.7057 18.4494C3.50481 18.507 3.34815 18.6781 3.34815 18.8871C3.34815 19.1175 3.53676 19.299 3.76293 19.343C3.9303 19.3756 4.08521 19.4289 4.21045 19.504C4.40999 19.6237 4.539 19.7956 4.539 20.0956C4.53899 20.4493 4.41853 20.6137 4.29955 20.7041C4.15952 20.8104 3.9507 20.8914 3.71934 20.8914C3.53498 20.8914 3.30446 20.8598 3.11767 20.7624C2.95138 20.6757 2.87375 20.5195 2.85318 20.365C2.85318 20.1152 2.6507 19.9128 2.40093 19.9128C2.15116 19.9128 1.94868 20.1152 1.94868 20.365C1.94868 20.9621 2.30084 21.3335 2.67919 21.5308C3.03704 21.7174 3.44545 21.7699 3.71934 21.7699C4.06855 21.7699 4.49569 21.6908 4.84646 21.4245C5.21828 21.1422 5.44349 20.6956 5.44349 20.0956C5.44349 19.5214 5.19038 19.1045 4.83082 18.8329C4.86691 18.8082 4.90146 18.7826 4.93449 18.7561C5.29668 18.4659 5.37947 18.0613 5.37947 17.692C5.37947 17.2649 5.10772 16.5391 4.08535 16.3044C3.2323 16.1086 2.56958 16.555 2.32413 16.8256C2.15633 17.0106 2.17027 17.2966 2.35528 17.4644C2.54028 17.6322 2.82629 17.6183 2.99409 17.4333Z" fill="#49454F"/>
</svg>
