<svg width="25" height="24" viewBox="0 0 25 24" fill="none" xmlns="http://www.w3.org/2000/svg">
<g clip-path="url(#clip0_1247_10158)">
<path fill-rule="evenodd" clip-rule="evenodd" d="M6.40554 18.4724C6.14097 19.0819 5.43231 19.3606 4.82758 19.1008C4.21813 18.8409 3.93467 18.137 4.19924 17.5276L11.3992 0.727559C11.5882 0.288189 12.0181 0 12.5 0C12.9819 0 13.4118 0.288189 13.6008 0.727559L20.8103 17.5228C21.0748 18.1323 20.8055 18.8787 20.1819 19.1008C19.2654 19.4268 18.7977 18.926 18.604 18.4724L17.3709 15.6H7.63861L6.40554 18.4724ZM16.3362 13.2L12.5 4.24724L8.6638 13.2H16.3362ZM1.7 21.6H23.3C23.9614 21.6 24.5 22.1386 24.5 22.8C24.5 23.4615 23.9614 24 23.3 24H1.7C1.03858 24 0.5 23.4615 0.5 22.8C0.5 22.1386 1.03858 21.6 1.7 21.6Z" fill="#49454F"/>
</g>
<defs>
<clipPath id="clip0_1247_10158">
<rect width="24" height="24" fill="white" transform="translate(0.5)"/>
</clipPath>
</defs>
</svg>
