<svg width="25" height="24" viewBox="0 0 25 24" fill="none" xmlns="http://www.w3.org/2000/svg">
<g clip-path="url(#clip0_1246_10130)">
<path fill-rule="evenodd" clip-rule="evenodd" d="M17.7004 1.19861C17.7004 0.53585 18.2377 -0.00146484 18.9005 -0.00146484C19.5632 -0.00146484 20.1006 0.53585 20.1006 1.19861V11.5993C20.1006 15.7902 16.6909 19.1998 12.4999 19.1998C10.4698 19.1998 8.56108 18.4092 7.12555 16.9736C5.68994 15.5379 4.89949 13.6293 4.89957 11.5991V1.19861C4.89957 0.53585 5.43688 -0.00146484 6.09964 -0.00146484C6.76241 -0.00146484 7.29972 0.53585 7.29972 1.19861V11.5992C7.29964 12.9883 7.84048 14.2943 8.82278 15.2765C9.80501 16.2586 11.1108 16.7996 12.4999 16.7996C15.3674 16.7996 17.7004 14.4668 17.7004 11.5993V1.19861ZM6.09961 21.5999H18.9004C19.5632 21.5999 20.1005 22.1372 20.1005 22.8C20.1005 23.4628 19.5632 24.0001 18.9004 24.0001H6.09961C5.43685 24.0001 4.89954 23.4628 4.89954 22.8C4.89954 22.1372 5.43685 21.5999 6.09961 21.5999Z" fill="#49454F"/>
</g>
<defs>
<clipPath id="clip0_1246_10130">
<rect width="24" height="24" fill="white" transform="translate(0.5)"/>
</clipPath>
</defs>
</svg>
