<svg width="25" height="24" viewBox="0 0 25 24" fill="none" xmlns="http://www.w3.org/2000/svg">
<g clip-path="url(#clip0_1250_17418)">
<path d="M1.01372 19.6952C1.21975 19.6952 1.40868 19.5773 1.48965 19.3839C1.54903 19.2435 3.03351 15.9138 8.58367 15.2543C9.73977 15.114 11.1244 15.042 12.8059 15.0294V19.1796C12.8059 19.3713 12.9094 19.5449 13.0794 19.6367C13.2485 19.7248 13.451 19.7122 13.6084 19.607L24.2715 12.4293C24.4154 12.333 24.5 12.1711 24.5 12.001C24.5 11.8292 24.4154 11.6727 24.2715 11.5719L13.6039 4.39331C13.4465 4.28444 13.2458 4.27725 13.0749 4.36721C12.904 4.45898 12.8023 4.63262 12.8023 4.81886V8.6812C10.4829 8.9835 0.5 10.7775 0.5 19.1841C0.5 19.4279 0.671841 19.6412 0.912956 19.6898C0.946245 19.6951 0.981333 19.6952 1.01372 19.6952Z" fill="#49454F"/>
</g>
<defs>
<clipPath id="clip0_1250_17418">
<rect width="24" height="24" fill="white" transform="translate(0.5)"/>
</clipPath>
</defs>
</svg>
