<svg width="25" height="24" viewBox="0 0 25 24" fill="none" xmlns="http://www.w3.org/2000/svg">
<path fill-rule="evenodd" clip-rule="evenodd" d="M13.6682 4.22222H12C11.4086 4.22222 10.9286 3.72444 10.9286 3.11111C10.9286 2.49778 11.4086 2 12 2H18.4286C19.02 2 19.5 2.49778 19.5 3.11111C19.5 3.72444 19.02 4.22222 18.4286 4.22222H15.9568L10.3318 19.7778H12C12.5914 19.7778 13.0714 20.2756 13.0714 20.8889C13.0714 21.5022 12.5914 22 12 22H5.57143C4.98 22 4.5 21.5022 4.5 20.8889C4.5 20.2756 4.98 19.7778 5.57143 19.7778H8.04321L13.6682 4.22222Z" fill="#49454F"/>
</svg>
