<svg width="25" height="24" viewBox="0 0 25 24" fill="none" xmlns="http://www.w3.org/2000/svg">
<g clip-path="url(#clip0_1279_1105)">
<path fill-rule="evenodd" clip-rule="evenodd" d="M1.7 3.59995H23.3C23.98 3.59995 24.5 3.07995 24.5 2.39995C24.5 1.71995 23.98 1.19995 23.3 1.19995H1.7C1.02 1.19995 0.5 1.71995 0.5 2.39995C0.5 3.07995 1.02 3.59995 1.7 3.59995ZM8.9 9.99991H23.3C23.98 9.99991 24.5 9.47991 24.5 8.79991C24.5 8.11991 23.98 7.59991 23.3 7.59991H8.9C8.22 7.59991 7.7 8.11991 7.7 8.79991C7.7 9.47991 8.22 9.99991 8.9 9.99991ZM23.3 16.4H1.7C1.02 16.4 0.5 15.88 0.5 15.2C0.5 14.52 1.02 14 1.7 14H23.3C23.98 14 24.5 14.52 24.5 15.2C24.5 15.88 23.98 16.4 23.3 16.4ZM8.9 22.8H23.3C23.98 22.8 24.5 22.28 24.5 21.6C24.5 20.92 23.98 20.4 23.3 20.4H8.9C8.22 20.4 7.7 20.92 7.7 21.6C7.7 22.28 8.22 22.8 8.9 22.8Z" fill="#49454F"/>
</g>
<defs>
<clipPath id="clip0_1279_1105">
<rect width="24" height="24" fill="white" transform="translate(0.5)"/>
</clipPath>
</defs>
</svg>
