<svg width="25" height="24" viewBox="0 0 25 24" fill="none" xmlns="http://www.w3.org/2000/svg">
<g clip-path="url(#clip0_1266_670)">
<path fill-rule="evenodd" clip-rule="evenodd" d="M3.16665 4.33333C3.16665 3.59696 2.5697 3 1.83333 3C1.09696 3 0.5 3.59696 0.5 4.33333V12.3333V20.3332C0.5 21.0696 1.09696 21.6666 1.83333 21.6666C2.5697 21.6666 3.16665 21.0696 3.16665 20.3332V13.6666H11.1666V20.3332C11.1666 21.0696 11.7635 21.6666 12.4999 21.6666C13.2363 21.6666 13.8332 21.0696 13.8332 20.3332V12.3391L13.8333 12.3333L13.8332 12.3275V4.33333C13.8332 3.59696 13.2363 3 12.4999 3C11.7635 3 11.1666 3.59696 11.1666 4.33333V10.9999H3.16665V4.33333ZM24.5 9.66664C24.5 9.17492 24.2293 8.72311 23.7959 8.49108C23.3623 8.25906 22.8363 8.28448 22.4271 8.55724L18.4271 11.224C17.8144 11.6324 17.6488 12.4602 18.0574 13.0729C18.4658 13.6855 19.2936 13.8511 19.9063 13.4427L21.8333 12.158V20.3332C21.8333 21.0696 22.4303 21.6666 23.1667 21.6666C23.9031 21.6666 24.5 21.0696 24.5 20.3332V9.66664Z" fill="#49454F"/>
</g>
<defs>
<clipPath id="clip0_1266_670">
<rect width="24" height="24" fill="white" transform="translate(0.5)"/>
</clipPath>
</defs>
</svg>
