<svg width="25" height="24" viewBox="0 0 25 24" fill="none" xmlns="http://www.w3.org/2000/svg">
<g clip-path="url(#clip0_1279_1103)">
<path fill-rule="evenodd" clip-rule="evenodd" d="M1.7 3.59995H23.3C23.98 3.59995 24.5 3.07995 24.5 2.39995C24.5 1.71995 23.98 1.19995 23.3 1.19995H1.7C1.02 1.19995 0.5 1.71995 0.5 2.39995C0.5 3.07995 1.02 3.59995 1.7 3.59995ZM5.3 9.99991H19.7C20.38 9.99991 20.9 9.47991 20.9 8.79991C20.9 8.11991 20.38 7.59991 19.7 7.59991H5.3C4.62 7.59991 4.1 8.11991 4.1 8.79991C4.1 9.47991 4.62 9.99991 5.3 9.99991ZM23.3 16.4H1.7C1.02 16.4 0.5 15.88 0.5 15.2C0.5 14.52 1.02 14 1.7 14H23.3C23.98 14 24.5 14.52 24.5 15.2C24.5 15.88 23.98 16.4 23.3 16.4ZM5.3 22.8H19.7C20.38 22.8 20.9 22.28 20.9 21.6C20.9 20.92 20.38 20.4 19.7 20.4H5.3C4.62 20.4 4.1 20.92 4.1 21.6C4.1 22.28 4.62 22.8 5.3 22.8Z" fill="#49454F"/>
</g>
<defs>
<clipPath id="clip0_1279_1103">
<rect width="24" height="24" fill="white" transform="translate(0.5)"/>
</clipPath>
</defs>
</svg>
