<svg width="25" height="24" viewBox="0 0 25 24" fill="none" xmlns="http://www.w3.org/2000/svg">
<g clip-path="url(#clip0_1266_705)">
<path fill-rule="evenodd" clip-rule="evenodd" d="M3.0263 4.26315C3.0263 3.56554 2.46076 3 1.76315 3C1.06554 3 0.5 3.56554 0.5 4.26315V12.335V20.421C0.5 21.1186 1.06554 21.6841 1.76315 21.6841C2.46076 21.6841 3.0263 21.1186 3.0263 20.421V13.67H10.6052V20.421C10.6052 21.1186 11.1707 21.6841 11.8684 21.6841C12.566 21.6841 13.1315 21.1186 13.1315 20.421V4.26315C13.1315 3.56554 12.566 3 11.8684 3C11.1707 3 10.6052 3.56554 10.6052 4.26315V11H3.0263V4.26315ZM18.8609 12.0318C19.0827 11.7873 19.7633 11.252 20.7488 11.4782C21.4366 11.636 21.6507 11.8599 21.8387 12.1016C21.9377 12.2288 21.9991 12.3522 22.0347 12.4526C22.0683 12.5471 22.0727 12.5955 22.0739 12.6089C22.074 12.6097 22.074 12.6104 22.0741 12.611C22.0741 12.8806 22.0606 13.2922 21.7515 13.5398C21.7288 13.558 21.7055 13.577 21.6814 13.5966C21.415 13.8132 21.0573 14.1042 20.3519 14.3066C19.9021 14.4356 19.5514 14.8187 19.5514 15.2866C19.5514 15.8025 19.9736 16.2087 20.48 16.3072C20.8547 16.3801 21.2015 16.4996 21.4819 16.6677C21.9286 16.9356 22.2174 17.3204 22.2174 17.9921C22.2174 18.784 21.9477 19.1521 21.6814 19.3544C21.3679 19.5924 20.9004 19.7737 20.3824 19.7737C19.9697 19.7737 19.4536 19.703 19.0354 19.485C18.6631 19.2909 18.4893 18.9411 18.4432 18.5953C18.4432 18.0361 17.9899 17.5828 17.4308 17.5828C16.8716 17.5828 16.4183 18.0361 16.4183 18.5953C16.4183 19.932 17.2067 20.7636 18.0537 21.2053C18.8549 21.623 19.7692 21.7405 20.3824 21.7405C21.1642 21.7405 22.1205 21.5634 22.9058 20.9672C23.7382 20.3353 24.2424 19.3355 24.2424 17.9921C24.2424 16.7066 23.6757 15.7733 22.8707 15.1652C22.9515 15.1099 23.0289 15.0526 23.1028 14.9933C23.9137 14.3436 24.0991 13.4377 24.0991 12.611C24.0991 11.6548 23.4907 10.0298 21.2018 9.5045C19.292 9.06619 17.9105 10.0655 17.361 10.6714C16.9854 11.0856 17.0166 11.7259 17.4308 12.1016C17.845 12.4772 18.4853 12.446 18.8609 12.0318Z" fill="#49454F"/>
</g>
<defs>
<clipPath id="clip0_1266_705">
<rect width="24" height="24" fill="white" transform="translate(0.5)"/>
</clipPath>
</defs>
</svg>
