<svg width="24" height="24" viewBox="0 0 24 24" fill="none" xmlns="http://www.w3.org/2000/svg">
<path fill-rule="evenodd" clip-rule="evenodd" d="M0.727291 4.47454C0.649233 4.39643 0.649255 4.26984 0.727341 4.19175L4.19157 0.727524C4.26966 0.649426 4.39628 0.649418 4.47439 0.727505L7.93956 4.19175C8.01766 4.26983 8.01769 4.39644 7.93963 4.47456L6.80839 5.6066C6.73029 5.68475 6.60362 5.68477 6.5255 5.60665L5.33297 4.41412V9.80012C5.33297 9.91058 5.24343 10.0001 5.13297 10.0001H3.53297C3.42251 10.0001 3.33297 9.91058 3.33297 9.80012V4.41412L2.14144 5.60654C2.06333 5.68472 1.93661 5.68472 1.85849 5.60655L0.727291 4.47454ZM5.33297 14.2001V19.5861L6.5255 18.3936C6.60362 18.3155 6.73029 18.3155 6.80839 18.3936L7.93963 19.5257C8.01769 19.6038 8.01766 19.7304 7.93956 19.8085L4.47439 23.2727C4.39628 23.3508 4.26966 23.3508 4.19157 23.2727L0.727341 19.8085C0.649256 19.7304 0.649233 19.6038 0.727291 19.5257L1.8585 18.3937C1.93661 18.3155 2.06333 18.3155 2.14144 18.3937L3.33297 19.5861V14.2001C3.33297 14.0897 3.42251 14.0001 3.53297 14.0001H5.13297C5.24343 14.0001 5.33297 14.0897 5.33297 14.2001ZM9.99997 3.00012C9.99997 2.44784 10.4477 2.00012 11 2.00012H22C22.5523 2.00012 23 2.44784 23 3.00012C23 3.55241 22.5523 4.00012 22 4.00012H11C10.4477 4.00012 9.99997 3.55241 9.99997 3.00012ZM11 8.00012C10.4477 8.00012 9.99997 8.44784 9.99997 9.00012C9.99997 9.55241 10.4477 10.0001 11 10.0001H15.125C15.6773 10.0001 16.125 9.55241 16.125 9.00012C16.125 8.44784 15.6773 8.00012 15.125 8.00012H11ZM9.99997 21.0001C9.99997 20.4478 10.4477 20.0001 11 20.0001H15.125C15.6773 20.0001 16.125 20.4478 16.125 21.0001C16.125 21.5524 15.6773 22.0001 15.125 22.0001H11C10.4477 22.0001 9.99997 21.5524 9.99997 21.0001ZM11 14.0001C10.4477 14.0001 9.99997 14.4478 9.99997 15.0001C9.99997 15.5524 10.4477 16.0001 11 16.0001H22C22.5523 16.0001 23 15.5524 23 15.0001C23 14.4478 22.5523 14.0001 22 14.0001H11Z" fill="#49454F"/>
</svg>
