<svg width="24" height="24" viewBox="0 0 24 24" fill="none" xmlns="http://www.w3.org/2000/svg">
<path fill-rule="evenodd" clip-rule="evenodd" d="M12.0213 0C14.2107 0 15.992 1.78122 15.992 3.97064C15.992 6.16005 14.2107 7.94132 12.0213 7.94132H10.8186L9.5327 16.6277C9.44131 17.2635 8.89562 17.7222 8.27138 17.7222C8.21096 17.7222 8.14983 17.7179 8.08828 17.7091C7.39077 17.6088 6.90663 16.9622 7.00687 16.2647L8.24066 7.94127H4.82249C4.11788 7.94127 3.54663 7.37007 3.54663 6.66541C3.54663 5.96075 4.11783 5.38951 4.82249 5.38951H9.69727H9.70602H12.0213C12.8037 5.38951 13.4402 4.75299 13.4402 3.97059C13.4402 3.18819 12.8037 2.55172 12.0213 2.55172H11.9088C11.2041 2.55172 10.6329 1.98047 10.6329 1.27586C10.6329 0.571246 11.2041 0 11.9088 0H12.0213ZM17.9144 11.5918C18.0147 10.8943 18.6616 10.4102 19.3588 10.5104C20.0563 10.6106 20.5405 11.2573 20.4402 11.9547L19.4672 18.7249C19.0971 21.2998 17.2086 23.3312 14.7844 23.959C13.9788 24.1676 13.1942 23.5527 13.1942 22.7205C13.1942 22.1419 13.5828 21.6337 14.1425 21.487C15.585 21.1088 16.7217 19.8906 16.9414 18.362L17.027 17.7661C15.7657 17.9678 14.5222 17.494 13.7132 16.5604C13.0237 15.7648 12.7143 14.7107 12.864 13.6686L13.1626 11.5917C13.2628 10.8943 13.9091 10.4095 14.607 10.5104C15.3044 10.6106 15.7886 11.2573 15.6883 11.9548L15.3898 14.0317C15.2977 14.6727 15.787 15.2459 16.4298 15.2604C16.9564 15.2722 17.4488 14.8307 17.5238 14.3093L17.9144 11.5918Z" fill="#49454F"/>
</svg>
