<svg width="24" height="24" viewBox="0 0 24 24" fill="none" xmlns="http://www.w3.org/2000/svg">
<g clip-path="url(#clip0_2278_10750)">
<path fill-rule="evenodd" clip-rule="evenodd" d="M1.25 1C0.559644 1 0 1.55964 0 2.25C0 2.94036 0.559644 3.5 1.25 3.5H22.75C23.4404 3.5 24 2.94036 24 2.25C24 1.55964 23.4404 1 22.75 1H1.25ZM12.25 6C11.5596 6 11 6.55964 11 7.25C11 7.94036 11.5596 8.5 12.25 8.5H22.75C23.4404 8.5 24 7.94036 24 7.25C24 6.55964 23.4404 6 22.75 6H12.25ZM11 12.25C11 11.5596 11.5596 11 12.25 11H22.75C23.4404 11 24 11.5596 24 12.25C24 12.9404 23.4404 13.5 22.75 13.5H12.25C11.5596 13.5 11 12.9404 11 12.25ZM12.25 16C11.5596 16 11 16.5596 11 17.25C11 17.9404 11.5596 18.5 12.25 18.5H22.75C23.4404 18.5 24 17.9404 24 17.25C24 16.5596 23.4404 16 22.75 16H12.25ZM0 22.25C0 21.5596 0.559644 21 1.25 21H22.75C23.4404 21 24 21.5596 24 22.25C24 22.9404 23.4404 23.5 22.75 23.5H1.25C0.559644 23.5 0 22.9404 0 22.25ZM7.33333 7.99986C7.33333 7.17582 6.39257 6.70544 5.73333 7.19986L0.4 11.1999C-0.133333 11.5999 -0.133333 12.3999 0.4 12.7999L5.73333 16.7999C6.39257 17.2943 7.33333 16.8239 7.33333 15.9999V7.99986Z" fill="#49454F"/>
</g>
<defs>
<clipPath id="clip0_2278_10750">
<rect width="24" height="24" fill="white"/>
</clipPath>
</defs>
</svg>
