<svg width="25" height="24" viewBox="0 0 25 24" fill="none" xmlns="http://www.w3.org/2000/svg">
<path fill-rule="evenodd" clip-rule="evenodd" d="M4.67307 1.73963C4.67307 1.47695 4.52847 1.23558 4.29691 1.11163C4.06527 0.987676 3.78427 1.00126 3.56567 1.14697L1.42881 2.57158C1.10152 2.78975 1.01305 3.23201 1.2313 3.55931C1.44947 3.8866 1.89173 3.97507 2.21902 3.7569L3.24849 3.07054V7.43792C3.24849 7.83132 3.56738 8.15021 3.96078 8.15021C4.35417 8.15021 4.67307 7.83132 4.67307 7.43792V1.73963ZM22.4988 3.96289H8.64792C8.02016 3.96289 7.50899 4.50147 7.50899 5.16289C7.50899 5.82431 8.02016 6.36289 8.64792 6.36289H22.4988C23.1265 6.36289 23.6377 5.82431 23.6377 5.16289C23.6377 4.50147 23.1265 3.96289 22.4988 3.96289ZM8.64553 10.7998H22.4964C23.1241 10.7998 23.6353 11.3384 23.6353 11.9998C23.6353 12.6612 23.1241 13.1998 22.4964 13.1998H8.64553C8.01777 13.1998 7.50659 12.6612 7.50659 11.9998C7.50659 11.3384 8.01777 10.7998 8.64553 10.7998ZM8.64289 17.6368H22.4937C23.1215 17.6368 23.6327 18.1754 23.6327 18.8368C23.6327 19.4983 23.1215 20.0368 22.4937 20.0368H8.64289C8.01513 20.0368 7.50395 19.4983 7.50395 18.8368C7.50395 18.1754 8.01513 17.6368 8.64289 17.6368ZM4.33763 8.84655C5.04912 9.08371 5.58842 9.7099 5.58842 10.5112C5.58842 11.1684 5.35855 11.651 5.00391 12.0203C4.73348 12.302 4.38479 12.5157 4.1141 12.6816C4.07076 12.7081 4.0295 12.7334 3.99082 12.7576C3.67569 12.9545 3.44569 13.122 3.28172 13.3475C3.20657 13.4508 3.13697 13.5784 3.08587 13.7452H4.94162C5.29879 13.7452 5.58842 14.0348 5.58842 14.3921C5.58842 14.7493 5.29879 15.0389 4.94162 15.0389H2.3544C1.99717 15.0389 1.70759 14.7493 1.70759 14.3921C1.70759 13.6277 1.90202 13.0452 2.23552 12.5866C2.55666 12.1451 2.97346 11.8679 3.3052 11.6606C3.35882 11.6271 3.40947 11.5957 3.45746 11.566C3.73707 11.3929 3.92445 11.2768 4.07076 11.1245C4.20122 10.9885 4.29481 10.8243 4.29481 10.5112C4.29481 10.3423 4.18732 10.16 3.92853 10.0738C3.67737 9.99003 3.24887 10.0021 2.74248 10.3819C2.45666 10.5962 2.05124 10.5383 1.83696 10.2525C1.6226 9.96674 1.68049 9.56132 1.96632 9.34697C2.75348 8.7566 3.61864 8.60688 4.33763 8.84655ZM2.85339 17.3502C2.97333 17.218 3.34135 16.9285 3.87428 17.0508C4.24619 17.1362 4.36197 17.2572 4.46361 17.3879C4.51715 17.4568 4.55033 17.5235 4.56962 17.5777C4.58778 17.6289 4.59015 17.655 4.59081 17.6623C4.59085 17.6627 4.59088 17.6631 4.59091 17.6634C4.59091 17.8092 4.58359 18.0318 4.41649 18.1657C4.40418 18.1755 4.39158 18.1858 4.37857 18.1964C4.23451 18.3135 4.04105 18.4709 3.65961 18.5803C3.41641 18.6501 3.22675 18.8572 3.22675 19.1103C3.22675 19.3892 3.45509 19.6089 3.7289 19.6621C3.93152 19.7016 4.11905 19.7662 4.27067 19.8571C4.51223 20.0019 4.66842 20.21 4.66842 20.5732C4.66842 21.0015 4.52258 21.2005 4.37854 21.3099C4.20902 21.4386 3.95621 21.5367 3.67612 21.5367C3.45294 21.5367 3.17387 21.4984 2.94773 21.3805C2.74642 21.2756 2.65243 21.0864 2.62753 20.8994C2.62753 20.5971 2.38241 20.3519 2.08003 20.3519C1.77766 20.3519 1.53253 20.5971 1.53253 20.8994C1.53253 21.6223 1.95885 22.0719 2.4169 22.3108C2.85012 22.5367 3.34455 22.6002 3.67612 22.6002C4.09889 22.6002 4.61599 22.5044 5.04064 22.1821C5.49078 21.8403 5.76341 21.2997 5.76341 20.5732C5.76341 19.8781 5.457 19.3734 5.0217 19.0446C5.06539 19.0147 5.10722 18.9837 5.14721 18.9517C5.58568 18.6003 5.68591 18.1104 5.68591 17.6634C5.68591 17.1464 5.35692 16.2676 4.11923 15.9836C3.0865 15.7466 2.33946 16.287 2.04232 16.6146C1.83917 16.8385 1.85606 17.1848 2.08003 17.3879C2.304 17.5911 2.65025 17.5742 2.85339 17.3502Z" fill="#49454F"/>
</svg>
