<svg width="24" height="24" viewBox="0 0 24 24" fill="none" xmlns="http://www.w3.org/2000/svg">
<g clip-path="url(#clip0_1275_669)">
<path fill-rule="evenodd" clip-rule="evenodd" d="M12 3.19998C12.9028 3.1852 13.7837 3.47889 14.497 4.0325C15.2103 4.58611 15.7134 5.36653 15.9232 6.24478C15.9473 6.40635 16.0042 6.56129 16.0904 6.7001C16.1765 6.83891 16.2901 6.95867 16.4241 7.05205C16.5582 7.14542 16.7099 7.21044 16.87 7.24312C17.03 7.27579 17.1951 7.27545 17.355 7.24209C17.5149 7.20874 17.6664 7.14308 17.8 7.04914C17.9337 6.9552 18.0467 6.83497 18.1323 6.69579C18.2178 6.55662 18.2741 6.40144 18.2976 6.23977C18.321 6.0781 18.3112 5.91333 18.2688 5.75558C17.9469 4.33786 17.1494 3.07305 16.0089 2.17148C14.8685 1.26991 13.4537 0.785915 12 0.799978C10.3298 0.775798 8.71817 1.41488 7.51845 2.57711C6.31873 3.73934 5.62882 5.32987 5.59998 6.99998C5.60105 8.05344 5.8793 9.08808 6.40678 9.99998H9.55398C9.07707 9.65757 8.68775 9.20739 8.41771 8.68608C8.14767 8.16477 8.00455 7.58706 7.99998 6.99998C8.02837 5.96626 8.46527 4.98592 9.215 4.27368C9.96473 3.56144 10.9662 3.17535 12 3.19998ZM23.2 12C23.2 11.6817 23.0736 11.3765 22.8485 11.1515C22.6235 10.9264 22.3182 10.8 22 10.8H1.99999C1.68173 10.8 1.3765 10.9264 1.15146 11.1515C0.926416 11.3765 0.799988 11.6817 0.799988 12C0.799988 12.3182 0.926416 12.6235 1.15146 12.8485C1.3765 13.0736 1.68173 13.2 1.99999 13.2H22C22.3182 13.2 22.6235 13.0736 22.8485 12.8485C23.0736 12.6235 23.2 12.3182 23.2 12ZM9.50297 19.9675C10.2163 20.5211 11.0972 20.8148 12 20.8C13.0338 20.8246 14.0352 20.4385 14.785 19.7263C15.5347 19.0141 15.9716 18.0337 16 17C15.9954 16.4129 15.8523 15.8352 15.5823 15.3139C15.3122 14.7926 14.9229 14.3424 14.446 14H17.5932C18.1207 14.9119 18.3989 15.9465 18.4 17C18.3711 18.6701 17.6812 20.2606 16.4815 21.4229C15.2818 22.5851 13.6702 23.2242 12 23.2C10.5463 23.2141 9.13152 22.7301 7.99104 21.8285C6.85056 20.9269 6.05307 19.6621 5.73119 18.2444C5.68874 18.0866 5.67895 17.9219 5.70242 17.7602C5.72589 17.5985 5.78212 17.4434 5.86768 17.3042C5.95323 17.165 6.0663 17.0448 6.19996 16.9508C6.33361 16.8569 6.48505 16.7912 6.64497 16.7579C6.8049 16.7245 6.96995 16.7242 7.13001 16.7569C7.29008 16.7895 7.44178 16.8546 7.57584 16.9479C7.70989 17.0413 7.82347 17.1611 7.90961 17.2999C7.99574 17.4387 8.05263 17.5936 8.07679 17.7552C8.28654 18.6335 8.78964 19.4139 9.50297 19.9675Z" fill="#49454F"/>
</g>
<defs>
<clipPath id="clip0_1275_669">
<rect width="24" height="24" fill="white"/>
</clipPath>
</defs>
</svg>
