<svg width="25" height="24" viewBox="0 0 25 24" fill="none" xmlns="http://www.w3.org/2000/svg">
<path fill-rule="evenodd" clip-rule="evenodd" d="M3.5675 7.02147C4.67139 7.02147 5.56627 6.12659 5.56627 5.0227C5.56627 3.91881 4.67139 3.02393 3.5675 3.02393C2.46361 3.02393 1.56873 3.91881 1.56873 5.0227C1.56873 6.12659 2.46361 7.02147 3.5675 7.02147ZM22.4987 3.96289H8.64789C8.02013 3.96289 7.50896 4.50147 7.50896 5.16289C7.50896 5.82431 8.02013 6.36289 8.64789 6.36289H22.4987C23.1265 6.36289 23.6377 5.82431 23.6377 5.16289C23.6377 4.50147 23.1265 3.96289 22.4987 3.96289ZM8.6455 10.7998H22.4963C23.1241 10.7998 23.6353 11.3384 23.6353 11.9998C23.6353 12.6612 23.1241 13.1998 22.4963 13.1998H8.6455C8.01774 13.1998 7.50656 12.6612 7.50656 11.9998C7.50656 11.3384 8.01774 10.7998 8.6455 10.7998ZM8.64286 17.6368H22.4937C23.1215 17.6368 23.6326 18.1754 23.6326 18.8368C23.6326 19.4983 23.1215 20.0368 22.4937 20.0368H8.64286C8.0151 20.0368 7.50392 19.4983 7.50392 18.8368C7.50392 18.1754 8.0151 17.6368 8.64286 17.6368ZM5.56627 11.9998C5.56627 13.1037 4.67139 13.9986 3.5675 13.9986C2.46361 13.9986 1.56873 13.1037 1.56873 11.9998C1.56873 10.8959 2.46361 10.001 3.5675 10.001C4.67139 10.001 5.56627 10.8959 5.56627 11.9998ZM3.5675 20.9757C4.67139 20.9757 5.56627 20.0808 5.56627 18.9769C5.56627 17.873 4.67139 16.9781 3.5675 16.9781C2.46361 16.9781 1.56873 17.873 1.56873 18.9769C1.56873 20.0808 2.46361 20.9757 3.5675 20.9757Z" fill="#49454F"/>
</svg>
