<svg width="24" height="24" viewBox="0 0 24 24" fill="none" xmlns="http://www.w3.org/2000/svg">
<path fill-rule="evenodd" clip-rule="evenodd" d="M20.8696 2.04348C20.8696 1.46719 20.4024 1 19.8261 1C19.2498 1 18.7826 1.46719 18.7826 2.04348V4.13043H16.6957C16.1193 4.13043 15.6522 4.59762 15.6522 5.17391C15.6522 5.75021 16.1193 6.21739 16.6957 6.21739H18.7826V8.30435C18.7826 8.88064 19.2498 9.34783 19.8261 9.34783C20.4024 9.34783 20.8696 8.88064 20.8696 8.30435V6.21739H22.9565C23.5328 6.21739 24 5.75021 24 5.17391C24 4.59762 23.5328 4.13043 22.9565 4.13043H20.8696V2.04348ZM8.69054 4.13043C7.86029 4.13043 7.06406 4.46025 6.47698 5.04732L5.61254 5.91177C5.41684 6.10745 5.15143 6.21739 4.87468 6.21739H3.13043C1.40155 6.21739 0 7.61894 0 9.34783V19.7826C0 21.5115 1.40155 22.913 3.13043 22.913H17.7391C19.4681 22.913 20.8696 21.5115 20.8696 19.7826V12.4783C20.8696 11.9019 20.4024 11.4348 19.8261 11.4348C19.2498 11.4348 18.7826 11.9019 18.7826 12.4783V19.7826C18.7826 20.3589 18.3154 20.8261 17.7391 20.8261H3.13043C2.55414 20.8261 2.08696 20.3589 2.08696 19.7826V9.34783C2.08696 8.77153 2.55414 8.30435 3.13043 8.30435H4.87468C5.70493 8.30435 6.50116 7.97453 7.08823 7.38746L7.95268 6.52302C8.14838 6.32733 8.41378 6.21739 8.69054 6.21739H12.5217C13.0981 6.21739 13.5652 5.75021 13.5652 5.17391C13.5652 4.59762 13.0981 4.13043 12.5217 4.13043H8.69054ZM10.4348 9.34783C7.5533 9.34783 5.21739 11.6838 5.21739 14.5652C5.21739 17.4467 7.5533 19.7826 10.4348 19.7826C13.3162 19.7826 15.6522 17.4467 15.6522 14.5652C15.6522 11.6838 13.3162 9.34783 10.4348 9.34783ZM7.30435 14.5652C7.30435 12.8363 8.70589 11.4348 10.4348 11.4348C12.1637 11.4348 13.5652 12.8363 13.5652 14.5652C13.5652 16.2942 12.1637 17.6957 10.4348 17.6957C8.70589 17.6957 7.30435 16.2942 7.30435 14.5652Z" fill="#49454F"/>
</svg>
