<svg width="25" height="24" viewBox="0 0 25 24" fill="none" xmlns="http://www.w3.org/2000/svg">
<g clip-path="url(#clip0_1266_691)">
<path fill-rule="evenodd" clip-rule="evenodd" d="M3.0263 4.26315C3.0263 3.56554 2.46076 3 1.76315 3C1.06554 3 0.5 3.56554 0.5 4.26315V12.335V20.421C0.5 21.1186 1.06554 21.6841 1.76315 21.6841C2.46076 21.6841 3.0263 21.1186 3.0263 20.421V13.67H10.6052V20.421C10.6052 21.1186 11.1707 21.6841 11.8684 21.6841C12.566 21.6841 13.1315 21.1186 13.1315 20.421V4.26315C13.1315 3.56554 12.566 3 11.8684 3C11.1707 3 10.6052 3.56554 10.6052 4.26315V11H3.0263V4.26315ZM24.5 12.8421C24.5 11.2772 23.4468 10.0543 22.0573 9.59116C20.6532 9.12311 18.9636 9.41549 17.4263 10.5684C16.8682 10.987 16.7551 11.7788 17.1737 12.3368C17.5922 12.8949 18.3839 13.0081 18.9421 12.5895C19.931 11.8478 20.7679 11.8243 21.2584 11.9878C21.7637 12.1562 21.9737 12.5123 21.9737 12.8421C21.9737 13.4535 21.7909 13.7742 21.5361 14.0397C21.2504 14.3373 20.8845 14.5639 20.3384 14.9021C20.2447 14.96 20.1458 15.0213 20.0411 15.0867C19.3932 15.4916 18.5792 16.033 17.9521 16.8952C17.3008 17.7908 16.9211 18.9283 16.9211 20.421C16.9211 21.1187 17.4866 21.6842 18.1842 21.6842H23.2368C23.9343 21.6842 24.5 21.1187 24.5 20.421C24.5 19.7234 23.9343 19.1579 23.2368 19.1579H19.6127C19.7125 18.832 19.8484 18.5829 19.9952 18.3812C20.3154 17.9407 20.7646 17.6137 21.38 17.229C21.4555 17.1818 21.5361 17.1324 21.6208 17.0806C22.1494 16.7567 22.8303 16.3394 23.3585 15.7893C24.0511 15.0679 24.5 14.1256 24.5 12.8421Z" fill="#49454F"/>
</g>
<defs>
<clipPath id="clip0_1266_691">
<rect width="24" height="24" fill="white" transform="translate(0.5)"/>
</clipPath>
</defs>
</svg>
