<svg width="25" height="24" viewBox="0 0 25 24" fill="none" xmlns="http://www.w3.org/2000/svg">
<path fill-rule="evenodd" clip-rule="evenodd" d="M6.41088 0.764153C6.76685 -0.236786 7.98704 -0.272493 8.36869 0.764153L12.3223 10.4847L10.952 11.855L10.5273 10.7263H4.45196L3.3135 13.5456C2.81663 14.7639 1.21144 13.8805 1.54479 13.0953L6.41088 0.764153ZM5.53244 8.52172H9.34824L7.56701 3.62348H7.2987L5.53244 8.52172ZM8.5842 21.1695L9.05427 18.1924L18.2019 9.04478C18.4129 9.04118 18.6692 9.05392 18.9366 9.10531C19.3775 9.19006 19.7735 9.3639 20.0816 9.67203C20.3898 9.98017 20.5636 10.3761 20.6484 10.8171C20.6997 11.0845 20.7125 11.3408 20.7089 11.5518L11.5613 20.6994L8.5842 21.1695ZM12.6514 22.2129C12.5139 22.3505 12.3363 22.4409 12.1441 22.4713L7.62109 23.1854C7.00372 23.2829 6.47076 22.75 6.56824 22.1326L7.2824 17.6096C7.31274 17.4174 7.40319 17.2398 7.54076 17.1022L17.1696 7.47336C17.2962 7.34676 17.4558 7.25943 17.6337 7.23884C18.3092 7.16062 20.1092 7.09587 21.3835 8.37019C22.6578 9.64451 22.5931 11.4445 22.5148 12.12C22.4942 12.2978 22.4069 12.4574 22.2803 12.584L12.6514 22.2129Z" fill="#49454F"/>
</svg>
